<mxfile host="app.diagrams.net" agent="Mozilla/5.0 (X11; Linux x86_64) AppleWebKit/537.36 (KHTML, like Gecko) Chrome/128.0.0.0 Safari/537.36" version="24.7.17">
  <diagram name="Page-1" id="a7904f86-f2b4-8e86-fa97-74104820619b">
    <mxGraphModel dx="1445" dy="942" grid="1" gridSize="10" guides="1" tooltips="1" connect="1" arrows="1" fold="1" page="1" pageScale="1" pageWidth="1100" pageHeight="850" background="none" math="0" shadow="0">
      <root>
        <mxCell id="0" />
        <mxCell id="1" parent="0" />
        <mxCell id="p8-Nny7JiSUIAFGIWCPU-4" value="getInfoByVideoId&lt;div&gt;&lt;br&gt;&lt;/div&gt;" style="html=1;whiteSpace=wrap;" vertex="1" parent="1">
          <mxGeometry x="820" y="90" width="160" height="40" as="geometry" />
        </mxCell>
        <mxCell id="p8-Nny7JiSUIAFGIWCPU-6" value="browser" style="shape=umlFrame;whiteSpace=wrap;html=1;pointerEvents=0;" vertex="1" parent="1">
          <mxGeometry x="770" y="30" width="300" height="400" as="geometry" />
        </mxCell>
        <mxCell id="p8-Nny7JiSUIAFGIWCPU-7" value="&lt;div&gt;server&lt;/div&gt;" style="shape=umlFrame;whiteSpace=wrap;html=1;pointerEvents=0;" vertex="1" parent="1">
          <mxGeometry x="40" y="30" width="520" height="410" as="geometry" />
        </mxCell>
        <mxCell id="p8-Nny7JiSUIAFGIWCPU-9" value="RabbitMQ" style="html=1;whiteSpace=wrap;" vertex="1" parent="1">
          <mxGeometry x="320" y="330" width="200" height="90" as="geometry" />
        </mxCell>
        <mxCell id="p8-Nny7JiSUIAFGIWCPU-45" style="edgeStyle=none;curved=1;rounded=0;orthogonalLoop=1;jettySize=auto;html=1;exitX=0.5;exitY=0;exitDx=0;exitDy=0;fontSize=12;startSize=8;endSize=8;" edge="1" parent="1" source="p8-Nny7JiSUIAFGIWCPU-10" target="p8-Nny7JiSUIAFGIWCPU-28">
          <mxGeometry relative="1" as="geometry">
            <mxPoint x="130" y="430" as="targetPoint" />
          </mxGeometry>
        </mxCell>
        <mxCell id="p8-Nny7JiSUIAFGIWCPU-10" value="Server Listener 1&lt;br&gt;(docker image on dockerhub)&lt;br&gt;&lt;br&gt;Call Youtube API&lt;div&gt;&lt;br&gt;&lt;/div&gt;" style="html=1;whiteSpace=wrap;" vertex="1" parent="1">
          <mxGeometry x="80" y="630" width="200" height="170" as="geometry" />
        </mxCell>
        <mxCell id="p8-Nny7JiSUIAFGIWCPU-24" style="edgeStyle=none;curved=1;rounded=0;orthogonalLoop=1;jettySize=auto;html=1;entryX=0.5;entryY=0;entryDx=0;entryDy=0;fontSize=12;startSize=8;endSize=8;exitX=0.5;exitY=1;exitDx=0;exitDy=0;" edge="1" parent="1" source="p8-Nny7JiSUIAFGIWCPU-9" target="p8-Nny7JiSUIAFGIWCPU-16">
          <mxGeometry relative="1" as="geometry">
            <mxPoint x="830" y="510" as="sourcePoint" />
          </mxGeometry>
        </mxCell>
        <mxCell id="p8-Nny7JiSUIAFGIWCPU-38" style="edgeStyle=none;curved=1;rounded=0;orthogonalLoop=1;jettySize=auto;html=1;exitX=0.5;exitY=0;exitDx=0;exitDy=0;fontSize=12;startSize=8;endSize=8;entryX=0.5;entryY=1;entryDx=0;entryDy=0;" edge="1" parent="1" source="p8-Nny7JiSUIAFGIWCPU-16" target="p8-Nny7JiSUIAFGIWCPU-28">
          <mxGeometry relative="1" as="geometry">
            <mxPoint x="130" y="430" as="targetPoint" />
          </mxGeometry>
        </mxCell>
        <mxCell id="p8-Nny7JiSUIAFGIWCPU-39" value="POST TO DB&lt;div&gt;&lt;br&gt;&lt;/div&gt;" style="edgeLabel;html=1;align=center;verticalAlign=middle;resizable=0;points=[];fontSize=12;" vertex="1" connectable="0" parent="p8-Nny7JiSUIAFGIWCPU-38">
          <mxGeometry x="0.0327" y="-2" relative="1" as="geometry">
            <mxPoint x="-87" y="-30" as="offset" />
          </mxGeometry>
        </mxCell>
        <mxCell id="p8-Nny7JiSUIAFGIWCPU-16" value="Server Listener N&lt;br&gt;(docker image on dockerhub)&lt;br&gt;&lt;br&gt;Call Youtube API&lt;div&gt;&lt;br&gt;&lt;/div&gt;" style="html=1;whiteSpace=wrap;" vertex="1" parent="1">
          <mxGeometry x="320" y="630" width="200" height="170" as="geometry" />
        </mxCell>
        <mxCell id="p8-Nny7JiSUIAFGIWCPU-20" value="Listen messages&lt;div&gt;&lt;br&gt;&lt;/div&gt;" style="html=1;verticalAlign=bottom;startArrow=oval;startFill=1;endArrow=block;startSize=8;curved=0;rounded=0;fontSize=12;exitX=0.5;exitY=1;exitDx=0;exitDy=0;entryX=0.5;entryY=0;entryDx=0;entryDy=0;" edge="1" parent="1" source="p8-Nny7JiSUIAFGIWCPU-9" target="p8-Nny7JiSUIAFGIWCPU-10">
          <mxGeometry x="-0.6578" y="32" width="60" relative="1" as="geometry">
            <mxPoint x="300" y="610" as="sourcePoint" />
            <mxPoint x="170" y="530" as="targetPoint" />
            <mxPoint x="-1" as="offset" />
          </mxGeometry>
        </mxCell>
        <mxCell id="p8-Nny7JiSUIAFGIWCPU-50" style="edgeStyle=none;curved=1;rounded=0;orthogonalLoop=1;jettySize=auto;html=1;exitX=1;exitY=0.25;exitDx=0;exitDy=0;entryX=0.5;entryY=0;entryDx=0;entryDy=0;fontSize=12;startSize=8;endSize=8;" edge="1" parent="1" source="p8-Nny7JiSUIAFGIWCPU-28" target="p8-Nny7JiSUIAFGIWCPU-9">
          <mxGeometry relative="1" as="geometry" />
        </mxCell>
        <mxCell id="p8-Nny7JiSUIAFGIWCPU-51" value="2. Post to RabbitMQ" style="edgeLabel;html=1;align=center;verticalAlign=middle;resizable=0;points=[];fontSize=12;" vertex="1" connectable="0" parent="p8-Nny7JiSUIAFGIWCPU-50">
          <mxGeometry x="-0.0165" y="2" relative="1" as="geometry">
            <mxPoint as="offset" />
          </mxGeometry>
        </mxCell>
        <mxCell id="p8-Nny7JiSUIAFGIWCPU-28" value="API" style="html=1;whiteSpace=wrap;" vertex="1" parent="1">
          <mxGeometry x="80" y="190" width="200" height="230" as="geometry" />
        </mxCell>
        <mxCell id="p8-Nny7JiSUIAFGIWCPU-29" value="PostreSQL" style="html=1;whiteSpace=wrap;" vertex="1" parent="1">
          <mxGeometry x="80" y="70" width="210" height="90" as="geometry" />
        </mxCell>
        <mxCell id="p8-Nny7JiSUIAFGIWCPU-48" value="1 Request info by videoId" style="html=1;verticalAlign=bottom;startArrow=oval;startFill=1;endArrow=block;startSize=8;curved=0;rounded=0;fontSize=12;exitX=0;exitY=0.5;exitDx=0;exitDy=0;entryX=1;entryY=0;entryDx=0;entryDy=0;" edge="1" parent="1" source="p8-Nny7JiSUIAFGIWCPU-4" target="p8-Nny7JiSUIAFGIWCPU-28">
          <mxGeometry width="60" relative="1" as="geometry">
            <mxPoint x="630" y="400" as="sourcePoint" />
            <mxPoint x="560" y="230" as="targetPoint" />
          </mxGeometry>
        </mxCell>
      </root>
    </mxGraphModel>
  </diagram>
</mxfile>
